<?xml version="1.0" encoding="utf-8"?>
<!-- Generator: Adobe Illustrator 19.0.0, SVG Export Plug-In . SVG Version: 6.00 Build 0)  -->
<svg version="1.2" baseProfile="tiny" id="Layer_1" xmlns:sketch="http://www.bohemiancoding.com/sketch/ns"
	 xmlns="http://www.w3.org/2000/svg" xmlns:xlink="http://www.w3.org/1999/xlink" x="0px" y="0px" viewBox="513 113 1638 828"
	 xml:space="preserve">
<title>NuVu LOGO</title>
<desc>Created with Sketch.</desc>
<g id="Page-1" sketch:type="MSPage">
	<g id="NuVu-LOGO" sketch:type="MSLayerGroup">
		<path id="u" sketch:type="MSShapeGroup" fill="#F35D95" d="M1936.1,669.5c-96.6,0-175.2-78.6-175.2-175.2V357.6
			c0-24.3,19.8-44.1,44.1-44.1s44.1,19.8,44.1,44.1v136.7c0,48,39,87,87,87h39.5c48,0,87-39,87-87V357.6c0-24.3,19.8-44.1,44.1-44.1
			c24.3,0,44.1,19.8,44.1,44.1v136.7c0,96.6-78.6,175.2-175.2,175.2H1936.1z"/>
		<path id="v" sketch:type="MSShapeGroup" fill="#F35D95" d="M1663.1,679.2c-18,0-41.1-6.5-52.2-24.9l-293.7-473.3
			c-6.2-10-8.1-21.9-5.4-33.3c2.7-11.5,9.7-21.2,19.7-27.4c7-4.3,15-6.6,23.2-6.6c15.4,0,29.4,7.8,37.5,20.9l246.9,399.1v-176
			c0-24.3,19.8-44.1,44.1-44.1c24.3,0,44.1,19.8,44.1,44.1v264.5c0,27.2-25.1,45.7-39.9,52.4
			C1680.6,677.5,1672.2,679.2,1663.1,679.2"/>
		<path id="u_1_" sketch:type="MSShapeGroup" fill="#F35D95" d="M1170.4,669.5c-96.6,0-175.2-78.6-175.2-175.2V357.6
			c0-24.3,19.8-44.1,44.1-44.1c24.3,0,44.1,19.8,44.1,44.1v136.7c0,48,39,87,87,87h39.5c48,0,87-39,87-87V357.6
			c0-24.3,19.8-44.1,44.1-44.1c24.3,0,44.1,19.8,44.1,44.1v136.7c0,96.6-78.6,175.2-175.2,175.2H1170.4z"/>
		<path id="N" sketch:type="MSShapeGroup" fill="#F35D95" d="M898.9,679.2c-17.7,0-40.7-6.2-51.8-23.5L601.6,259.2v366.2
			c0,24.3-19.8,44.1-44.1,44.1c-24.3,0-44.1-19.8-44.1-44.1V170.7c0-20.2,21.5-46,45.1-54.3c5.4-1.9,11.5-2.8,18.1-2.8
			c18.9,0,44.3,8.7,54.1,25l244.6,395.1v-176c0-24.3,19.8-44.1,44.1-44.1c24.3,0,44.1,19.8,44.1,44.1v264.5
			c0,27.2-25.1,45.7-39.9,52.4C916.7,677.6,908.2,679.2,898.9,679.2"/>
	</g>
</g>
<g>
	<path fill="#F35D95" d="M530.9,865.1V733.3h9.5v123.3h78.7v8.5H530.9z"/>
	<path fill="#F35D95" d="M629.4,837c0-16.7,16.7-28.6,40.3-28.6c10.4,0,21.7,2,30.1,5.2v-9.5c0-18.2-11.3-29.9-29-29.9
		c-9.7,0-20.4,4.1-31,11.5l-3.7-6.3c12.4-8.4,24.1-12.6,35.3-12.6c23.2,0,37.7,14.5,37.7,38.1v47.2c0,3.2,1.3,4.6,3.9,4.6v8.4
		c-1.3,0.2-2.4,0.2-3.3,0.2c-4.5,0-8.9-3.3-8.9-8.4v-8c-8.9,11.5-23.4,18-39.4,18C643.4,866.9,629.4,853.9,629.4,837z M696.6,844.6
		c2-2.4,3.2-5.2,3.2-7.4v-17.1c-9.1-3.3-18.9-5.2-29-5.2c-19.3,0-32.3,8.7-32.3,21.5c0,13,10.8,23,24.7,23
		C677.5,859.5,690.7,853.7,696.6,844.6z"/>
	<path fill="#F35D95" d="M729.1,852.1l4.6-6.3c10.4,9.3,21.3,13.7,34.5,13.7c16.7,0,28-7.4,28-20c0-12.1-10.6-15.2-30.8-20
		c-21.9-5.2-31.9-8.7-31.9-23.9c0-19.3,16.2-28.6,35.5-28.6c15,0,27.3,5.6,33.6,13.6l-5.2,5c-6.3-7.4-17.5-11.1-29-11.1
		c-14.3,0-26,5.9-26,19.9c0,11.1,7.4,13.4,25.2,17.6c24.3,5.8,37.7,10,37.7,26.7c0,17.3-14.7,28.4-37.1,28.4
		C753.4,866.9,739.1,861.9,729.1,852.1z"/>
	<path fill="#F35D95" d="M820.3,816.4c0-27.3,20.4-49.6,47.3-49.6c27.3,0,47.2,22.6,47.3,49.6c0,1.3-0.2,3.5-0.2,4.1h-84.8
		c1.7,22.3,18.4,39,38.4,39c13.6,0,26.7-7.6,31.6-18.6l8.2,2.2c-5.8,13.7-22.1,23.8-40.1,23.8C840.9,866.9,820.3,843.9,820.3,816.4z
		 M905.8,813.1c-1.7-22.6-17.8-38.6-38.2-38.6c-20.2,0-36.6,16.2-37.9,38.6H905.8z"/>
	<path fill="#F35D95" d="M980.8,776.9c-17.5,0.6-31.2,11-36.4,27.8v60.3h-9.3v-96.5h8.7v23.8c6.7-13.6,18.6-22.6,31-23.9
		c2.4,0,4.5-0.2,5.9-0.2V776.9z"/>
	<path fill="#F35D95" d="M1091.8,852.6c-10.2,8.4-23,13.4-37.1,13.4c-36.6-0.2-61.6-33-61.6-66.8c0-35.1,26.7-66.8,61.8-66.8
		c36.6,0,61.4,34,61.4,66.8c0,18.6-7.2,35.8-19.1,48.3l14.7,17.6h-9.7L1091.8,852.6z M1086.1,845.6l-15.6-18.7h9.8l11.1,13.6
		c9.8-11.1,15.4-26.2,15.4-41.2c0-30.3-22.1-58.1-52.2-58.1c-31.6,0-52.2,29.3-52.2,58.1c0,30.3,21.5,58.1,52.2,58.1
		C1067,857.3,1077.6,852.8,1086.1,845.6z"/>
	<path fill="#F35D95" d="M1138.4,824.2v-55.7h9.3v54.4c0,23.9,8,35.6,24.3,35.6c16.3,0,31.9-11.7,37.7-29.1v-60.9h9.3v83.5
		c0,3,1.1,4.6,3.9,4.6v8.4c-1.5,0.2-2.4,0.2-3.3,0.2c-5.2,0-8.9-3.5-8.9-8.4v-14.7c-8.5,15.4-24.3,24.7-41.2,24.7
		C1149,866.9,1138.4,852.4,1138.4,824.2z"/>
	<path fill="#F35D95" d="M1242,816.4c0-27.3,20.4-49.6,47.3-49.6c27.3,0,47.2,22.6,47.3,49.6c0,1.3-0.2,3.5-0.2,4.1h-84.8
		c1.7,22.3,18.4,39,38.4,39c13.6,0,26.7-7.6,31.6-18.6l8.2,2.2c-5.8,13.7-22.1,23.8-40.1,23.8C1262.6,866.9,1242,843.9,1242,816.4z
		 M1327.6,813.1c-1.7-22.6-17.8-38.6-38.2-38.6c-20.2,0-36.6,16.2-37.9,38.6H1327.6z"/>
	<path fill="#F35D95" d="M1355.8,824.2v-55.7h9.3v54.4c0,23.9,8,35.6,24.3,35.6c16.3,0,31.9-11.7,37.7-29.1v-60.9h9.3v83.5
		c0,3,1.1,4.6,3.9,4.6v8.4c-1.5,0.2-2.4,0.2-3.3,0.2c-5.2,0-8.9-3.5-8.9-8.4v-14.7c-8.5,15.4-24.3,24.7-41.2,24.7
		C1366.4,866.9,1355.8,852.4,1355.8,824.2z"/>
	<path fill="#F35D95" d="M1459.4,816.4c0-27.3,20.4-49.6,47.3-49.6c27.3,0,47.2,22.6,47.3,49.6c0,1.3-0.2,3.5-0.2,4.1H1469
		c1.7,22.3,18.4,39,38.4,39c13.6,0,26.7-7.6,31.6-18.6l8.2,2.2c-5.8,13.7-22.1,23.8-40.1,23.8C1480,866.9,1459.4,843.9,1459.4,816.4
		z M1545,813.1c-1.7-22.6-17.8-38.6-38.2-38.6c-20.2,0-36.6,16.2-37.9,38.6H1545z"/>
	<path fill="#F35D95" d="M1606,865.1l56.1-131.8h7.8l56.1,131.8h-10.2l-18.4-43.4h-62.9l-18.4,43.4H1606z M1666,744.8l-29.3,69.1
		h58.1L1666,744.8z"/>
	<path fill="#F35D95" d="M1733.7,817c0-26.9,18.7-50.1,44.4-50.1c16.9,0,30.3,10.4,37.7,22.6v-60h9.3v122.5c0,3,1.3,4.6,3.9,4.6v8.4
		c-1.1,0.2-2.2,0.2-3.2,0.2c-5.4,0-9.1-4.1-9.1-8.4v-11.1c-7.8,12.8-22.3,21.2-36.6,21.2C1753.2,866.9,1733.7,842.6,1733.7,817z
		 M1815.8,832.6v-31.7c-5.2-14.1-21.5-25.6-35.6-25.6c-22.3,0-36.9,20.8-36.9,42c0,22.1,17.1,41.4,38.6,41.4
		C1795.4,858.6,1814.3,846.7,1815.8,832.6z"/>
	<path fill="#F35D95" d="M1996.4,865.1h-9.3v-53.8c0-24.3-7.6-35.8-23-35.8c-16.2,0-29.1,12.4-34,30.1v59.6h-9.3v-53.8
		c0-24.7-7.4-35.8-22.8-35.8c-15.8,0-29.1,12.1-34.2,29.9v59.8h-9.3v-96.5h8.5v23c8.2-15.6,21.7-24.7,37.1-24.7
		c16.2,0,26.7,10.6,28.8,26.2c9.3-17.3,21.9-26.2,37.9-26.2c21.2,0,29.5,15.8,29.5,42.7V865.1z"/>
	<path fill="#F35D95" d="M2023.9,746.6v-17.1h9.3v17.1H2023.9z M2023.9,865.1v-96.5h9.3v96.5H2023.9z"/>
	<path fill="#F35D95" d="M2140.7,865.1h-9.3v-53.8c0-24.9-6.9-35.8-22.3-35.8c-16.3,0-33,12.8-38.1,29.9v59.8h-9.3v-96.5h8.5v23
		c7.8-14.7,24.3-24.7,41.6-24.7c21,0,28.8,15.4,28.8,42.7V865.1z"/>
</g>
</svg>
