<?xml version="1.0" encoding="utf-8"?>
<!-- Generator: Adobe Illustrator 19.0.0, SVG Export Plug-In . SVG Version: 6.00 Build 0)  -->
<svg version="1.2" baseProfile="tiny" id="Layer_1" xmlns:sketch="http://www.bohemiancoding.com/sketch/ns"
	 xmlns="http://www.w3.org/2000/svg" xmlns:xlink="http://www.w3.org/1999/xlink" x="0px" y="0px" viewBox="513 113 1638 828"
	 xml:space="preserve">
<title>NuVu LOGO</title>
<desc>Created with Sketch.</desc>
<g id="Page-1" sketch:type="MSPage">
	<g id="NuVu-LOGO" sketch:type="MSLayerGroup">
		<path id="u" sketch:type="MSShapeGroup" fill="#F35D95" d="M1936.1,669.5c-96.6,0-175.2-78.6-175.2-175.2V357.6
			c0-24.3,19.8-44.1,44.1-44.1s44.1,19.8,44.1,44.1v136.7c0,48,39,87,87,87h39.5c48,0,87-39,87-87V357.6c0-24.3,19.8-44.1,44.1-44.1
			c24.3,0,44.1,19.8,44.1,44.1v136.7c0,96.6-78.6,175.2-175.2,175.2H1936.1z"/>
		<path id="v" sketch:type="MSShapeGroup" fill="#F35D95" d="M1663.1,679.2c-18,0-41.1-6.5-52.2-24.9l-293.7-473.3
			c-6.2-10-8.1-21.9-5.4-33.3c2.7-11.5,9.7-21.2,19.7-27.4c7-4.3,15-6.6,23.2-6.6c15.4,0,29.4,7.8,37.5,20.9l246.9,399.1v-176
			c0-24.3,19.8-44.1,44.1-44.1c24.3,0,44.1,19.8,44.1,44.1v264.5c0,27.2-25.1,45.7-39.9,52.4
			C1680.6,677.5,1672.2,679.2,1663.1,679.2"/>
		<path id="u_1_" sketch:type="MSShapeGroup" fill="#F35D95" d="M1170.4,669.5c-96.6,0-175.2-78.6-175.2-175.2V357.6
			c0-24.3,19.8-44.1,44.1-44.1c24.3,0,44.1,19.8,44.1,44.1v136.7c0,48,39,87,87,87h39.5c48,0,87-39,87-87V357.6
			c0-24.3,19.8-44.1,44.1-44.1c24.3,0,44.1,19.8,44.1,44.1v136.7c0,96.6-78.6,175.2-175.2,175.2H1170.4z"/>
		<path id="N" sketch:type="MSShapeGroup" fill="#F35D95" d="M898.9,679.2c-17.7,0-40.7-6.2-51.8-23.5L601.6,259.2v366.2
			c0,24.3-19.8,44.1-44.1,44.1c-24.3,0-44.1-19.8-44.1-44.1V170.7c0-20.2,21.5-46,45.1-54.3c5.4-1.9,11.5-2.8,18.1-2.8
			c18.9,0,44.3,8.7,54.1,25l244.6,395.1v-176c0-24.3,19.8-44.1,44.1-44.1c24.3,0,44.1,19.8,44.1,44.1v264.5
			c0,27.2-25.1,45.7-39.9,52.4C916.7,677.6,908.2,679.2,898.9,679.2"/>
	</g>
</g>
<g>
	<path fill="#F35D95" d="M540.3,916.7V710.3h14.8v193h123.3v13.4H540.3z"/>
	<path fill="#F35D95" d="M694.7,872.8c0-26.2,26.2-44.8,63.1-44.8c16.3,0,34,3.2,47.1,8.1v-14.8c0-28.5-17.7-46.8-45.4-46.8
		c-15.1,0-32,6.4-48.6,18l-5.8-9.9c19.5-13.1,37.8-19.8,55.2-19.8c36.3,0,59,22.7,59,59.6v73.8c0,4.9,2,7.3,6.1,7.3v13.1
		c-2,0.3-3.8,0.3-5.2,0.3c-7,0-14-5.2-14-13.1v-12.5c-14,18-36.6,28.2-61.6,28.2C716.5,919.6,694.7,899.3,694.7,872.8z M799.9,884.7
		c3.2-3.8,4.9-8.1,4.9-11.6v-26.7c-14.2-5.2-29.7-8.1-45.4-8.1c-30.2,0-50.6,13.7-50.6,33.7c0,20.4,16.9,36,38.7,36
		C770,908,790.6,899,799.9,884.7z"/>
	<path fill="#F35D95" d="M850.8,896.4l7.3-9.9c16.3,14.5,33.4,21.5,54.1,21.5c26.2,0,43.9-11.6,43.9-31.4
		c0-18.9-16.6-23.8-48.3-31.4c-34.3-8.1-50-13.7-50-37.5c0-30.2,25.3-44.8,55.5-44.8c23.5,0,42.7,8.7,52.6,21.2l-8.1,7.8
		c-9.9-11.6-27.3-17.4-45.4-17.4c-22.4,0-40.7,9.3-40.7,31.1c0,17.4,11.6,20.9,39.5,27.6c38.1,9,59,15.7,59,41.9
		c0,27-23,44.5-58.1,44.5C888.9,919.6,866.5,911.8,850.8,896.4z"/>
	<path fill="#F35D95" d="M993.6,840.5c0-42.7,32-77.6,74.1-77.6c42.7,0,73.8,35.5,74.1,77.6c0,2-0.3,5.5-0.3,6.4h-132.9
		c2.6,34.9,28.8,61.1,60.2,61.1c21.2,0,41.9-11.9,49.4-29.1l12.8,3.5c-9,21.5-34.6,37.2-62.8,37.2
		C1025.8,919.6,993.6,883.6,993.6,840.5z M1127.6,835.3c-2.6-35.5-27.9-60.5-59.9-60.5c-31.7,0-57.3,25.3-59.3,60.5H1127.6z"/>
	<path fill="#F35D95" d="M1245,778.6c-27.3,0.9-48.8,17.2-57,43.6v94.5h-14.5V765.5h13.7v37.2c10.5-21.2,29.1-35.5,48.6-37.5
		c3.8,0,7-0.3,9.3-0.3V778.6z"/>
	<path fill="#F35D95" d="M1418.9,897.2c-16,13.1-36,20.9-58.1,20.9c-57.3-0.3-96.5-51.8-96.5-104.7c0-54.9,41.9-104.7,96.8-104.7
		c57.3,0,96.2,53.2,96.2,104.7c0,29.1-11.3,56.1-29.9,75.6l23,27.6h-15.1L1418.9,897.2z M1409.9,886.2l-24.4-29.4h15.4l17.4,21.2
		c15.4-17.4,24.1-41,24.1-64.5c0-47.4-34.6-91-81.7-91c-49.4,0-81.7,45.9-81.7,91c0,47.4,33.7,91,81.7,91
		C1379.9,904.5,1396.5,897.5,1409.9,886.2z"/>
	<path fill="#F35D95" d="M1491.9,852.7v-87.2h14.5v85.2c0,37.5,12.5,55.8,38.1,55.8s50-18.3,59-45.6v-95.4h14.5v130.8
		c0,4.7,1.7,7.3,6.1,7.3v13.1c-2.3,0.3-3.8,0.3-5.2,0.3c-8.1,0-14-5.5-14-13.1v-23c-13.4,24.1-38.1,38.7-64.5,38.7
		C1508.4,919.6,1491.9,896.9,1491.9,852.7z"/>
	<path fill="#F35D95" d="M1654.1,840.5c0-42.7,32-77.6,74.1-77.6c42.7,0,73.8,35.5,74.1,77.6c0,2-0.3,5.5-0.3,6.4h-132.9
		c2.6,34.9,28.8,61.1,60.2,61.1c21.2,0,41.9-11.9,49.4-29.1l12.8,3.5c-9,21.5-34.6,37.2-62.8,37.2
		C1686.4,919.6,1654.1,883.6,1654.1,840.5z M1788.1,835.3c-2.6-35.5-27.9-60.5-59.9-60.5c-31.7,0-57.3,25.3-59.3,60.5H1788.1z"/>
	<path fill="#F35D95" d="M1832.3,852.7v-87.2h14.5v85.2c0,37.5,12.5,55.8,38.1,55.8s50-18.3,59-45.6v-95.4h14.5v130.8
		c0,4.7,1.7,7.3,6.1,7.3v13.1c-2.3,0.3-3.8,0.3-5.2,0.3c-8.1,0-14-5.5-14-13.1v-23c-13.4,24.1-38.1,38.7-64.5,38.7
		C1848.9,919.6,1832.3,896.9,1832.3,852.7z"/>
	<path fill="#F35D95" d="M1994.5,840.5c0-42.7,32-77.6,74.1-77.6c42.7,0,73.8,35.5,74.1,77.6c0,2-0.3,5.5-0.3,6.4h-132.9
		c2.6,34.9,28.8,61.1,60.2,61.1c21.2,0,41.9-11.9,49.4-29.1l12.8,3.5c-9,21.5-34.6,37.2-62.8,37.2
		C2026.8,919.6,1994.5,883.6,1994.5,840.5z M2128.6,835.3c-2.6-35.5-27.9-60.5-59.9-60.5c-31.7,0-57.3,25.3-59.3,60.5H2128.6z"/>
</g>
</svg>
