<?xml version="1.0" encoding="UTF-8" standalone="no"?>
<svg width="1638px" height="567px" viewBox="0 0 1638 567" version="1.1" xmlns="http://www.w3.org/2000/svg" xmlns:xlink="http://www.w3.org/1999/xlink" xmlns:sketch="http://www.bohemiancoding.com/sketch/ns">
    <!-- Generator: Sketch 3.3.1 (12005) - http://www.bohemiancoding.com/sketch -->
    <title>NuVu LOGO</title>
    <desc>Created with Sketch.</desc>
    <defs></defs>
    <g id="Page-1" stroke="none" stroke-width="1" fill="none" fill-rule="evenodd" sketch:type="MSPage">
        <g id="NuVu-LOGO" sketch:type="MSLayerGroup" fill="#F35D95">
            <path d="M1423.0898,556.5186 C1326.4858,556.5186 1247.8958,477.9276 1247.8958,381.3246 L1247.8958,244.6486 C1247.8958,220.3346 1267.6788,200.5506 1291.9928,200.5506 C1316.3068,200.5506 1336.0908,220.3346 1336.0908,244.6486 L1336.0908,381.3246 C1336.0908,429.2956 1375.1188,468.3236 1423.0898,468.3236 L1462.6108,468.3236 C1510.5808,468.3236 1549.6118,429.2956 1549.6118,381.3246 L1549.6118,244.6486 C1549.6118,220.3346 1569.3938,200.5506 1593.7088,200.5506 C1618.0238,200.5506 1637.8068,220.3346 1637.8068,244.6486 L1637.8068,381.3246 C1637.8068,477.9276 1559.2158,556.5186 1462.6108,556.5186 L1423.0898,556.5186 Z" id="u" sketch:type="MSShapeGroup"></path>
            <path d="M1150.0781,566.1533 C1132.1111,566.1533 1108.9531,559.6093 1097.8391,541.2443 L804.1441,67.9173 C797.9491,57.8973 796.0221,46.0603 798.7241,34.5973 C801.4261,23.1313 808.4321,13.4043 818.4511,7.2103 C825.4301,2.8933 833.4391,0.6113 841.6091,0.6113 C857.0211,0.6113 871.0541,8.4273 879.1491,21.5163 L1126.0981,420.6323 L1126.0981,244.6493 C1126.0981,220.3343 1145.8811,200.5523 1170.1951,200.5523 C1194.5111,200.5523 1214.2941,220.3343 1214.2941,244.6493 L1214.2941,509.1543 C1214.2941,536.3743 1189.2071,554.8723 1174.3881,561.5083 C1167.5991,564.5473 1159.1961,566.1533 1150.0781,566.1533" id="v" sketch:type="MSShapeGroup"></path>
            <path d="M657.3545,556.5186 C560.7515,556.5186 482.1585,477.9276 482.1585,381.3246 L482.1585,244.6486 C482.1585,220.3346 501.9415,200.5506 526.2585,200.5506 C550.5715,200.5506 570.3535,220.3346 570.3535,244.6486 L570.3535,381.3246 C570.3535,429.2956 609.3845,468.3236 657.3545,468.3236 L696.8735,468.3236 C744.8495,468.3236 783.8745,429.2956 783.8745,381.3246 L783.8745,244.6486 C783.8745,220.3346 803.6565,200.5506 827.9755,200.5506 C852.2875,200.5506 872.0695,220.3346 872.0695,244.6486 L872.0695,381.3246 C872.0695,477.9276 793.4785,556.5186 696.8735,556.5186 L657.3545,556.5186 Z" id="u" sketch:type="MSShapeGroup"></path>
            <path d="M385.8906,566.1943 C368.1476,566.1943 345.2116,560.0113 334.0686,542.6613 L88.6196,146.2093 L88.6196,512.4203 C88.6196,536.7353 68.8366,556.5183 44.5216,556.5183 C20.2076,556.5183 0.4236,536.7353 0.4236,512.4203 L0.4236,57.7013 C0.4236,37.5273 21.9036,11.6583 45.4836,3.4233 C50.8496,1.5513 56.9416,0.6013 63.5976,0.6013 C82.5356,0.6013 107.9186,9.3473 117.6536,25.5573 L362.2606,420.6423 L362.2606,244.6493 C362.2606,220.3343 382.0436,200.5523 406.3586,200.5523 C430.6696,200.5523 450.4536,220.3343 450.4536,244.6493 L450.4536,509.1543 C450.4536,536.3743 425.3696,554.8723 410.5466,561.5103 C403.6996,564.5753 395.1746,566.1943 385.8906,566.1943" id="N" sketch:type="MSShapeGroup"></path>
        </g>
    </g>
</svg>